<svg width="48" height="48" viewBox="0 0 48 48" fill="none" xmlns="http://www.w3.org/2000/svg">
<rect width="48" height="48" rx="5" fill="#232E52"/>
<path d="M16.5405 31.2257C15.5476 31.2257 14.6675 31.1279 13.9003 30.9323C13.1481 30.7217 12.4185 30.4358 11.7114 30.0748L11.4857 26.2611H11.8919L13.4941 29.0368C13.9003 29.3677 14.3366 29.6235 14.8029 29.804C15.2844 29.9845 15.7733 30.0748 16.2697 30.0748C17.0821 30.0748 17.744 29.8867 18.2555 29.5106C18.767 29.1195 19.0228 28.5478 19.0228 27.7956C19.0228 27.2841 18.9024 26.8629 18.6617 26.5319C18.4361 26.201 18.0524 25.8926 17.5109 25.6067C16.9693 25.3058 16.2246 24.9448 15.2768 24.5236C14.2087 24.0572 13.3888 23.5006 12.8171 22.8537C12.2455 22.2068 11.9596 21.4019 11.9596 20.4391C11.9596 19.8373 12.1101 19.2657 12.4109 18.7241C12.7269 18.1675 13.1406 17.6785 13.6521 17.2573C14.1786 16.821 14.7578 16.4825 15.3897 16.2418C16.0366 16.0011 16.6985 15.8808 17.3755 15.8808C18.1427 15.8808 18.8799 15.971 19.5869 16.1516C20.294 16.3321 20.9484 16.5878 21.5502 16.9188L21.7758 20.5294H21.3922L19.8126 17.9794C19.4215 17.6785 19.0378 17.4529 18.6617 17.3024C18.3007 17.1369 17.887 17.0542 17.4206 17.0542C16.8038 17.0542 16.2923 17.2498 15.8861 17.6409C15.4799 18.0321 15.2768 18.5511 15.2768 19.198C15.2768 19.8148 15.495 20.3263 15.9312 20.7325C16.3826 21.1236 17.1573 21.5674 18.2555 22.0639C19.6245 22.6957 20.6325 23.3426 21.2794 24.0045C21.9263 24.6665 22.2497 25.539 22.2497 26.6222C22.2497 27.585 21.9714 28.4124 21.4148 29.1045C20.8582 29.7965 20.1436 30.323 19.271 30.6841C18.3985 31.0451 17.4883 31.2257 16.5405 31.2257ZM24.3318 31V30.6389L26.2499 29.7137V17.3927L24.3318 16.4675V16.1064H36.4046V20.0104H36.0436L34.5091 17.3476H29.6574V22.7634H32.9069L34.1706 20.8227H34.5316V25.7647H34.1706L32.9069 23.8691H29.6574V29.7137L31.9591 30.6389V31H24.3318Z" fill="white"/>
</svg>
